PathFileType	4	(X/Y/Z)	Patient4_TMGait_0pt4_01_right_06.trc.trc
DataRate	CameraRate	NumFrames	NumMarkers	Units	OrigDataRate	OrigDataStartFrame	OrigNumFrames
73.298429319372	73.298429319372	4	33	mm	73.298429319372	53	       141
Frame#	Time	Sacral			L.Shoulder			Chest			R.Shoulder			Neck			R.ASIS			L.ASIS			R.Thigh.Superior			R.Thigh.Lateral			R.Thigh.Inferior			R.Patella			L.Thigh.Superior			L.Thigh.Lateral			L.Thigh.Inferior			L.Patella			L.Shank.Superior			L.Shank.Lateral			L.Shank.Inferior			R.Shank.Superior			R.Shank.Lateral			R.Shank.Inferior			R.Heel			R.Midfoot.Superior			R.Midfoot.Lateral			R.Toe			L.Heel			L.Midfoot.Lateral			L.Midfoot.Superior			L.Toe			L.Elbow			L.Wrist			R.Elbow			R.Wrist			
		X1	Y1	Z1	X2	Y2	Z2	X3	Y3	Z3	X4	Y4	Z4	X5	Y5	Z5	X6	Y6	Z6	X7	Y7	Z7	X8	Y8	Z8	X9	Y9	Z9	X10	Y10	Z10	X11	Y11	Z11	X12	Y12	Z12	X13	Y13	Z13	X14	Y14	Z14	X15	Y15	Z15	X16	Y16	Z16	X17	Y17	Z17	X18	Y18	Z18	X19	Y19	Z19	X20	Y20	Z20	X21	Y21	Z21	X22	Y22	Z22	X23	Y23	Z23	X24	Y24	Z24	X25	Y25	Z25	X26	Y26	Z26	X27	Y27	Z27	X28	Y28	Z28	X29	Y29	Z29	X30	Y30	Z30	X31	Y31	Z31	X32	Y32	Z32	X33	Y33	Z33	

53	7.999428571429	812.193035556652	1013.126671387057	561.951711378339	972.300168588866	1435.402852954940	352.704658162134	1092.967523435132	1370.490058070924	502.433233369255	1032.637212341406	1449.653626827897	683.580990216195	975.326166272272	1501.857099739854	505.996508790454	1051.204849693555	943.375565755355	650.187229749128	1005.711444704636	973.883636731762	380.123119932947	1074.409896343852	738.285538374163	616.506128949633	988.289238691945	633.767937253304	681.045638943983	1055.755838164756	577.995351505259	595.859930325336	1048.470765752232	492.760801065362	600.530396667765	1085.388285875726	784.915057969146	399.881292848526	1029.219780368403	660.082869244822	322.525586966777	1133.560199073387	593.063532229667	372.289010852711	1145.102064378296	508.209357082265	363.469022350407	1088.945152784447	438.002649322745	356.091268806935	956.177020205846	373.116493169649	309.479164275089	970.277340707549	241.941151389347	359.504548646757	1018.878062814404	405.112079558530	607.027033669318	945.919848744763	302.582194116039	669.104558814565	982.756648865610	207.837408943981	601.870938579650	841.775919274622	45.217668773559	569.645281077273	1014.534255596979	97.042873174263	605.652322280204	925.808438503050	37.059687741807	644.029103057133	1134.197840057539	40.750229466619	632.178493963766	798.149463074479	137.331961647971	400.342134266563	859.577385694186	110.094198404619	315.201918856858	960.795712400263	141.053165622555	333.761157710049	1059.783540857608	50.941233493995	295.546750373541	925.341775887348	1078.652039846696	257.513541461638	1008.915426772135	831.536988211052	237.122390215866	1102.192038443510	1117.236938219651	821.375732118912	1332.831360817970	1020.619095385351	766.062581582695	
54	8.013071428571	810.546674479123	1014.020562089434	563.776143034224	970.800591467720	1435.953663791292	354.400347014582	1092.458308923563	1370.275267086822	503.003820880899	1034.007906173758	1449.530017428329	684.707510039127	975.190059013775	1502.030046529730	507.707474365614	1049.811434164821	943.076237163814	650.476522627155	1003.026377967544	974.589903986870	380.674652847734	1070.861789402279	737.631314312302	616.483393204384	984.205404940567	633.767976671857	681.596250479543	1050.585648793212	577.496924099928	596.060022467563	1042.693447839679	492.704148308719	600.770956318402	1082.944694474009	786.344643244332	400.083889684158	1027.026399628247	661.215293211432	322.938723756720	1131.669280368144	594.784767607974	372.613370271219	1144.748211461056	511.428379915322	363.776639826996	1092.002803334603	440.168360557948	356.131866255095	963.244001456464	368.365596293388	309.251811290350	984.842696299619	237.857138465576	358.651608003039	1013.212324591213	405.091073245668	607.280336468624	940.360745513745	302.486064099971	669.387021881023	977.183225171861	207.828106555378	602.052724111096	836.246507198117	45.138069654065	569.720335934776	1008.987474472838	97.028366471830	605.707960125095	920.270805995663	36.997006452068	644.093016152980	1128.644849897427	40.782332558666	632.204660810546	819.299882589178	123.151347420818	399.270802835106	882.081581218090	100.354650776753	313.805018737358	981.287796392428	136.884435688066	332.457512570914	1085.287536784793	53.265256771078	293.432576978809	917.667612718460	1079.900740470332	260.035764083276	993.197012752306	830.336471103778	239.204046506657	1110.568369899298	1118.347533587900	820.600894518710	1343.248981343927	1029.272439582236	762.056159946296	
55	8.026714285714	808.905473808726	1014.791493526171	565.403535694400	969.389624418914	1436.357505147322	355.907740636598	1091.969197313664	1369.929868669433	503.434883018061	1035.311733489202	1449.281540864057	685.651437181527	975.086145949314	1502.053783429544	509.268534285118	1048.417633153382	942.650122547767	650.614652639456	1000.410131360953	975.102736996943	381.078978930800	1067.370585391734	736.919855078642	616.341300183076	980.217735573911	633.686509401722	682.051897015426	1045.523223556969	576.953361202033	596.183070881422	1037.049304393192	492.574028511359	600.962061460368	1080.160606807664	787.197450707215	400.235162071218	1024.334792687873	661.948033721922	323.214220610580	1128.910827826273	595.798230725825	373.233963036445	1143.483759239520	514.205023198097	364.375228239033	1094.396500798333	442.135485804425	356.343604205022	970.489601652587	363.188006070651	308.742917029046	999.785117403971	233.811855659477	357.745771624800	1007.635133858817	404.997525754245	607.474359211832	934.889028067910	302.341847067511	669.627138409169	971.627877679869	207.753451564645	602.179495898285	830.718419714126	45.026286761550	569.787957356495	1003.427568995765	97.003450327432	605.741980900082	914.729983340179	36.926138858664	644.138640019752	1123.092767024868	40.819208096175	632.218675126885	841.525246334684	109.148853265611	397.610591383162	905.890790819600	90.625706813461	312.257536665887	1002.698593575230	132.785105547724	331.310725682150	1111.635312295769	55.808282069837	292.361350207706	909.919094103822	1081.167120368503	262.308437194766	978.041049230328	829.614608565612	241.234798233548	1118.386391516329	1119.346722444784	819.533104414526	1352.714384061037	1037.377059784300	757.885639516552	
56	8.040357142857	807.283479865664	1015.414611078617	566.830052778242	968.052389296075	1436.606339542318	357.216333410138	1091.487018264679	1369.453595776254	503.718794699692	1036.525162624626	1448.898722960557	686.411202132107	975.006125539098	1501.926778674193	510.674917858558	1047.036553031114	942.111506700839	650.606117285802	997.879262772661	975.396890115478	381.334700197256	1063.978473593616	736.165773045561	616.101093475331	976.360374985206	633.526458231339	682.416508064789	1040.618582487212	576.369412206332	596.244109555451	1031.583188663414	492.367888190542	601.115280105221	1077.070691067657	787.471518073914	400.383529041429	1021.269847285640	662.298907005898	323.329455754439	1125.405198753720	596.130061011072	374.160391450490	1141.426185178875	516.525516680082	365.272454544093	1096.162936781456	443.930177125935	356.740612586142	977.895643055498	357.835038165974	307.982442695963	1014.865008906694	230.090741808866	356.874907529617	1002.185737270387	404.833293019902	607.620335629770	929.529917497998	302.156160913971	669.840728144927	966.108210008187	207.619307171239	602.261445339759	825.192600421110	44.892433652517	569.852206873550	997.859045970824	96.967776998468	605.758585466263	909.188256534204	36.849644644326	644.166600997792	1117.545089711475	40.857181265655	632.222519588847	864.425890404145	95.940226430665	395.486203886322	930.601242078314	81.373903041904	310.709843420927	1024.668777591039	129.050178590693	330.447835794084	1138.315096080667	58.653635333455	292.525367715258	902.181727918921	1082.424297866377	264.359423441085	963.520671212416	829.273212617248	243.194212052775	1125.613004923649	1120.194138322204	818.203559270371	1361.226073186904	1044.833899443943	753.584966685474	
